<?xml version="1.0" encoding="utf-8"?>
<svg version="1.1" id="" xmlns="http://www.w3.org/2000/svg" xmlns:xlink="http://www.w3.org/1999/xlink" x="0px" y="0px"
	 viewBox="0 0 204.1 204.1" style="enable-background:new 0 0 204.1 204.1;" xml:space="preserve">
<path style="fill:#47B134" d="M102,201.3l-58.1-58.1c-32-32-32-84.2,0-116.2C59.5,11.4,80.1,2.8,102,2.8s42.6,8.5,58.1,24.1h0
	c32,32,32,84.2,0,116.2L102,201.3z M102,10.2c-20,0-38.8,7.8-52.9,21.9C20,61.3,20,108.8,49.1,137.9l52.9,52.9l52.9-52.9
	c29.2-29.2,29.2-76.6,0-105.8l0,0C140.8,18,122,10.2,102,10.2z M102.2,120c-19.3,0-35.1-15.7-35.1-35.1s15.7-35.1,35.1-35.1
	c19.3,0,35.1,15.7,35.1,35.1S121.5,120,102.2,120z M102.2,57.2c-15.3,0-27.7,12.4-27.7,27.7s12.4,27.7,27.7,27.7
	s27.7-12.4,27.7-27.7S117.5,57.2,102.2,57.2z"/>
</svg>
